<?xml version="1.0" standalone="no"?>
<!DOCTYPE svg PUBLIC "-//W3C//DTD SVG 20010904//EN"
 "http://www.w3.org/TR/2001/REC-SVG-20010904/DTD/svg10.dtd">
<svg version="1.0" xmlns="http://www.w3.org/2000/svg"
 width="418.000000pt" height="418.000000pt" viewBox="0 0 418.000000 418.000000"
 preserveAspectRatio="xMidYMid meet">
<metadata>
Created by potrace 1.11, written by Peter Selinger 2001-2013
</metadata>
<g transform="translate(0.000000,418.000000) scale(0.100000,-0.100000)"
fill="#000000" stroke="none">
<path d="M2235 3901 c-102 -7 -155 -23 -202 -65 -21 -17 -27 -18 -85 -6 -88
17 -258 24 -271 11 -6 -6 -28 -11 -49 -11 -47 0 -115 -26 -148 -56 -14 -12
-36 -24 -50 -26 -20 -2 -25 -9 -25 -30 -1 -28 -32 -60 -70 -72 -11 -3 -61 -47
-112 -98 -67 -69 -102 -114 -133 -173 -23 -44 -52 -91 -66 -106 -13 -14 -24
-30 -24 -36 0 -6 -8 -29 -18 -51 -16 -35 -30 -46 -115 -90 -536 -279 -867
-755 -867 -1247 0 -528 371 -1023 975 -1301 98 -45 105 -50 105 -77 0 -54 33
-85 58 -54 6 7 15 66 22 132 15 173 26 244 43 295 8 25 17 69 21 98 3 29 12
67 21 84 8 17 15 37 15 45 0 25 49 111 76 132 41 32 49 25 15 -14 -16 -19 -35
-52 -41 -74 -6 -22 -15 -41 -21 -43 -5 -2 -12 -18 -14 -36 -2 -17 -11 -47 -19
-64 -18 -41 -35 -155 -41 -274 -2 -50 -9 -104 -15 -120 -11 -27 -23 -97 -35
-202 -5 -37 -3 -42 15 -42 11 0 39 -12 62 -26 24 -15 59 -28 82 -29 23 -1 48
-5 56 -8 48 -17 145 -27 291 -32 91 -2 180 -10 197 -16 19 -6 44 -8 60 -3 28
7 39 9 107 19 22 3 42 9 45 13 3 4 43 15 89 24 81 17 84 16 138 -4 55 -20 135
-21 330 -3 29 2 55 0 58 -4 3 -5 14 -7 25 -4 11 3 20 0 20 -6 0 -6 5 -11 11
-11 5 0 8 3 5 8 -2 4 2 15 9 25 11 15 13 16 19 2 7 -19 36 -20 36 0 0 8 7 15
15 15 9 0 18 7 22 16 3 8 16 20 29 25 21 7 24 15 24 58 0 27 4 53 10 56 6 4
10 -21 10 -69 0 -66 3 -77 22 -90 20 -14 24 -14 40 0 13 13 18 35 20 96 l3 80
120 52 c570 245 947 659 1030 1130 17 101 20 281 5 376 -16 100 -67 255 -117
354 -120 238 -300 435 -555 607 -89 60 -369 209 -393 209 -6 0 -17 22 -24 49
-9 34 -26 65 -57 97 -42 46 -53 64 -36 64 4 0 14 -4 21 -9 23 -15 51 6 51 38
0 35 -128 161 -222 220 -36 22 -53 49 -24 38 30 -12 51 49 24 70 -7 5 -42 18
-78 27 -36 10 -91 29 -123 42 -33 13 -79 24 -105 24 -32 0 -56 7 -81 25 -43
29 -85 34 -216 26z m-4 -328 c-9 -16 -10 -14 -11 12 0 21 3 26 11 18 8 -8 8
-16 0 -30z m674 -223 c3 -5 1 -10 -4 -10 -6 0 -11 5 -11 10 0 6 2 10 4 10 3 0
8 -4 11 -10z m-527 -47 c5 -10 12 -33 16 -52 7 -40 49 -133 78 -174 11 -15 18
-37 15 -47 -3 -11 -2 -19 2 -18 3 1 19 -4 34 -10 53 -22 87 -9 87 33 0 15 2
17 9 6 6 -9 19 -12 39 -8 21 4 34 1 45 -11 9 -9 33 -36 54 -59 21 -24 41 -43
45 -43 3 0 24 -12 47 -27 29 -19 49 -44 70 -88 27 -56 29 -67 22 -121 -5 -32
-9 -128 -10 -212 -2 -141 -4 -158 -28 -215 -15 -34 -37 -75 -50 -90 -13 -16
-23 -32 -23 -36 0 -17 -128 -139 -167 -159 -23 -12 -62 -34 -85 -49 -24 -15
-59 -34 -78 -41 -93 -37 -147 -53 -170 -50 -14 1 -30 0 -35 -3 -21 -12 -166
-10 -181 2 -8 6 -14 8 -14 4 0 -4 -8 -1 -17 6 -11 10 -14 10 -9 2 15 -26 -175
-14 -259 17 -11 4 -38 13 -60 19 -137 41 -239 107 -295 191 -13 19 -38 52 -55
72 -41 49 -85 139 -85 175 0 16 -7 38 -15 51 -13 18 -19 20 -34 10 -11 -6 -18
-16 -16 -22 2 -6 6 -26 9 -43 7 -42 -16 -45 -56 -6 -37 36 -40 112 -5 149 27
29 37 30 37 4 0 -11 -4 -20 -10 -20 -5 0 -14 -10 -20 -22 -10 -20 -9 -21 2 -7
20 25 77 34 91 15 15 -19 32 -9 42 24 l8 25 -23 -20 -23 -20 7 30 c4 17 9 57
12 90 3 33 8 67 11 75 3 8 7 30 8 49 2 25 12 42 36 62 18 15 40 24 48 21 10
-4 12 -1 7 7 -8 12 18 41 90 102 17 14 34 32 38 40 3 8 4 3 0 -11 -15 -61 -15
-81 -4 -95 22 -26 39 -17 113 62 97 105 226 230 269 262 14 11 16 9 11 -11 -4
-13 -12 -32 -20 -43 -18 -27 -17 -71 3 -79 16 -6 48 7 77 32 9 8 17 11 17 6 0
-5 7 2 16 14 8 12 22 22 30 22 8 0 14 5 14 10 0 6 8 14 18 17 9 4 37 27 62 52
47 48 113 101 127 101 16 1 53 39 53 54 0 21 17 20 28 -1z m647 -817 c12 -17
13 -30 6 -49 -17 -45 -29 -39 -33 18 -3 60 3 68 27 31z m-830 -744 l30 3 -1
-95 c-2 -79 -6 -102 -24 -133 -12 -20 -26 -37 -32 -37 -5 0 -7 -3 -5 -7 2 -5
-8 -32 -23 -62 l-26 -54 -30 44 c-16 24 -48 62 -70 84 l-42 40 3 75 c1 41 3
91 4 111 l1 36 65 -3 c36 -2 65 1 65 6 0 6 11 5 27 -1 15 -5 41 -9 58 -7z
m-285 -146 c0 -7 -9 -16 -20 -19 -23 -6 -29 -57 -6 -57 16 0 111 -107 145
-162 13 -22 19 -43 15 -50 -27 -45 -88 -117 -95 -112 -8 4 -69 129 -69 140 0
10 -65 142 -83 167 -22 32 -21 33 48 76 56 35 65 37 65 17z m433 -56 c14 -11
30 -20 35 -20 27 0 22 -44 -11 -113 -19 -40 -40 -88 -47 -107 -25 -67 -33 -67
-128 1 l-23 16 27 54 c15 30 44 77 65 105 22 28 39 58 39 67 0 22 12 21 43 -3z
m-593 -80 c0 -5 -2 -10 -4 -10 -3 0 -8 5 -11 10 -3 6 -1 10 4 10 6 0 11 -4 11
-10z m740 -41 c0 -5 9 -9 19 -9 11 0 23 -5 27 -11 5 -9 -1 -10 -20 -5 -42 11
-64 -1 -85 -47 -10 -23 -26 -51 -35 -62 -17 -20 -17 -20 -11 3 4 12 20 51 35
86 25 54 33 63 50 59 11 -3 20 -9 20 -14z m-730 1 c0 -5 -5 -10 -11 -10 -5 0
-7 5 -4 10 3 6 8 10 11 10 2 0 4 -4 4 -10z m-120 -30 c0 -5 -5 -10 -11 -10 -5
0 -7 5 -4 10 3 6 8 10 11 10 2 0 4 -4 4 -10z m170 -57 c0 -30 -15 -29 -36 2
-14 21 -14 28 -3 41 12 14 14 14 26 -2 7 -10 13 -28 13 -41z m-247 7 c-3 -11
-14 -20 -24 -20 -10 0 -21 -4 -24 -10 -3 -5 -11 -10 -16 -10 -16 0 1 20 35 41
17 10 32 19 33 19 0 0 -1 -9 -4 -20z m1124 -9 c38 -20 101 -94 113 -133 7 -23
17 -47 21 -53 17 -24 50 -145 56 -207 7 -80 -8 -92 -26 -20 -6 26 -16 63 -21
82 -5 19 -10 50 -10 68 0 17 -4 32 -10 32 -5 0 -10 10 -10 23 0 13 -7 32 -15
43 -8 10 -15 28 -15 38 0 20 -61 86 -80 86 -5 0 -10 5 -10 11 0 5 -13 15 -30
20 -16 6 -30 15 -30 20 0 9 43 3 67 -10z m-548 -75 c9 -11 4 -15 -29 -20 -22
-3 -40 -11 -40 -18 0 -6 -3 -8 -6 -5 -4 4 1 18 10 32 18 27 47 33 65 11z m46
-36 c3 -5 1 -10 -4 -10 -6 0 -11 5 -11 10 0 6 2 10 4 10 3 0 8 -4 11 -10z m63
-54 c3 -12 -1 -17 -10 -14 -7 3 -15 13 -16 22 -3 12 1 17 10 14 7 -3 15 -13
16 -22z m-138 -106 c0 -11 -4 -20 -10 -20 -5 0 -10 9 -10 20 0 11 5 20 10 20
6 0 10 -9 10 -20z m782 -462 c-7 -7 -12 -8 -12 -2 0 14 12 26 19 19 2 -3 -1
-11 -7 -17z"/>
<path d="M2310 3245 c-7 -9 -10 -18 -7 -21 3 -3 10 4 17 15 13 25 8 27 -10 6z"/>
<path d="M2331 3224 c0 -11 3 -14 6 -6 3 7 2 16 -1 19 -3 4 -6 -2 -5 -13z"/>
<path d="M2354 3223 c3 -20 0 -23 -27 -25 -18 0 -38 -1 -44 -1 -7 1 -13 -3
-13 -7 0 -5 -8 -7 -17 -6 -10 2 -20 0 -23 -3 -3 -3 -14 -11 -24 -17 -23 -12
-35 -39 -15 -32 7 2 21 -4 31 -14 11 -11 33 -18 58 -18 33 0 40 -3 40 -19 0
-11 9 -23 20 -26 17 -5 20 -15 20 -62 0 -73 11 -61 19 19 3 37 10 61 16 58 5
-3 9 -11 7 -17 -4 -19 16 -16 27 5 6 9 11 11 11 5 0 -7 4 -13 9 -13 11 0 3 39
-12 58 -5 6 -17 12 -26 11 -10 0 -11 -2 -3 -6 20 -8 14 -32 -7 -26 -12 3 -21
15 -23 32 -2 18 -9 26 -22 26 -11 0 -21 6 -23 13 -3 7 5 12 21 12 31 0 30 -1
10 41 -9 20 -13 24 -10 12z m-74 -63 c0 -5 -4 -10 -10 -10 -5 0 -10 5 -10 10
0 6 5 10 10 10 6 0 10 -4 10 -10z"/>
<path d="M2173 3091 c7 -34 -6 -48 -52 -57 -55 -11 -68 -59 -20 -76 45 -15 21
-31 -45 -30 -49 0 -56 -3 -56 -19 0 -10 -5 -19 -11 -19 -6 0 -8 7 -5 16 17 45
18 64 2 64 -9 0 -16 -7 -16 -15 0 -9 -7 -18 -15 -21 -13 -5 -12 -10 5 -31 11
-14 20 -30 20 -35 0 -18 28 -38 44 -32 11 4 16 1 16 -10 0 -9 8 -16 20 -16 26
0 28 47 3 66 -16 12 -16 13 -1 14 9 0 18 5 20 11 3 9 9 9 25 0 12 -6 33 -11
47 -11 22 0 25 5 28 43 3 37 6 42 28 42 24 0 25 3 25 51 0 29 -4 56 -9 61 -5
4 -7 -4 -4 -19 4 -22 1 -28 -13 -28 -15 0 -19 8 -19 40 0 23 -5 40 -11 40 -7
0 -9 -11 -6 -29z m-133 -211 c0 -5 -2 -10 -4 -10 -3 0 -8 5 -11 10 -3 6 -1 10
4 10 6 0 11 -4 11 -10z"/>
<path d="M2136 3065 c4 -8 7 -15 9 -15 2 0 5 7 9 15 3 9 0 15 -9 15 -9 0 -12
-6 -9 -15z"/>
<path d="M2014 3012 c-6 -4 -8 -15 -5 -25 6 -17 8 -16 19 7 12 26 7 32 -14 18z"/>
<path d="M2410 3010 c0 -5 9 -10 19 -10 11 0 23 5 26 10 4 6 -5 10 -19 10 -14
0 -26 -4 -26 -10z"/>
<path d="M1885 3000 c4 -6 11 -8 16 -5 14 9 11 15 -7 15 -8 0 -12 -5 -9 -10z"/>
<path d="M2620 2991 c0 -6 4 -13 10 -16 6 -3 7 1 4 9 -7 18 -14 21 -14 7z"/>
<path d="M1913 2975 c-7 -7 -8 -16 -3 -21 5 -5 7 -19 3 -32 -4 -18 -8 -20 -19
-11 -11 9 -14 8 -14 -4 0 -9 4 -18 10 -22 13 -8 1 -35 -16 -35 -8 0 -14 -9
-14 -20 0 -11 -7 -23 -15 -26 -18 -7 -20 -27 -3 -22 17 6 53 -32 65 -67 10
-32 33 -46 33 -21 0 9 -4 16 -10 16 -5 0 -10 5 -10 10 0 6 9 10 20 10 21 0 29
33 10 45 -19 12 -10 24 15 19 14 -2 25 0 25 6 0 5 -6 10 -14 10 -10 0 -16 13
-18 38 -2 29 -7 36 -20 34 -21 -3 -24 24 -6 63 13 29 0 51 -19 30z m-28 -185
c3 -5 1 -10 -4 -10 -6 0 -11 5 -11 10 0 6 2 10 4 10 3 0 8 -4 11 -10z"/>
<path d="M2470 2980 c-13 -8 -13 -10 2 -10 9 0 25 -3 35 -7 16 -6 16 -5 4 10
-16 20 -20 20 -41 7z"/>
<path d="M2705 2971 c-3 -5 -1 -12 5 -16 5 -3 10 1 10 9 0 18 -6 21 -15 7z"/>
<path d="M2547 2943 c-11 -10 -8 -43 3 -43 6 0 10 11 10 25 0 26 -2 29 -13 18z"/>
<path d="M2480 2915 c0 -8 5 -15 10 -15 6 0 10 7 10 15 0 8 -4 15 -10 15 -5 0
-10 -7 -10 -15z"/>
<path d="M2640 2926 c0 -2 7 -6 15 -10 8 -3 15 -1 15 4 0 6 -7 10 -15 10 -8 0
-15 -2 -15 -4z"/>
<path d="M2257 2913 c-12 -11 -8 -23 8 -23 8 0 15 7 15 15 0 16 -12 20 -23 8z"/>
<path d="M2440 2899 c0 -6 -8 -9 -19 -6 -16 4 -17 1 -10 -22 5 -14 11 -39 14
-55 5 -23 8 -27 16 -15 5 7 9 26 9 42 0 19 5 27 18 27 15 0 17 -6 14 -35 l-4
-35 53 0 54 0 -29 15 c-23 12 -31 13 -37 3 -16 -26 -20 2 -5 33 21 41 20 42
-7 37 -13 -2 -29 1 -35 9 -16 16 -32 17 -32 2z"/>
<path d="M1755 2877 c6 -22 3 -27 -18 -32 -19 -5 -24 -12 -22 -27 3 -12 -6
-33 -20 -50 -16 -18 -25 -24 -25 -15 0 10 -7 14 -22 10 -22 -4 -22 -4 -4 11
10 8 24 17 30 20 7 3 6 8 -4 15 -11 8 -21 3 -43 -20 -15 -17 -25 -34 -22 -39
7 -12 -36 -3 -49 10 -13 13 -26 13 -26 0 0 -5 3 -9 8 -8 4 1 16 -3 28 -9 11
-6 41 -11 67 -10 33 1 51 -3 57 -13 9 -13 11 -13 20 0 5 8 10 27 10 43 0 17 5
27 15 27 8 0 15 8 15 19 0 10 7 24 15 31 19 16 19 27 0 47 -14 14 -15 13 -10
-10z"/>
<path d="M2550 2889 c-11 -8 -12 -12 -2 -16 6 -2 12 -11 12 -19 0 -8 5 -14 11
-14 7 0 9 10 7 24 -4 19 0 26 16 29 18 4 17 4 -4 5 -14 1 -32 -3 -40 -9z"/>
<path d="M1820 2877 c0 -22 11 -27 26 -12 19 19 18 25 -6 25 -11 0 -20 -6 -20
-13z"/>
<path d="M1715 2869 c-10 -15 3 -25 16 -12 7 7 7 13 1 17 -6 3 -14 1 -17 -5z"/>
<path d="M2355 2868 c-4 -11 -3 -35 4 -93 3 -24 21 24 21 57 0 37 -16 60 -25
36z"/>
<path d="M2832 2858 c5 -15 28 -23 28 -10 0 5 -7 13 -16 16 -10 4 -14 1 -12
-6z"/>
<path d="M1675 2839 c-11 -16 -1 -19 13 -3 7 8 8 14 3 14 -5 0 -13 -5 -16 -11z"/>
<path d="M2808 2833 c6 -2 12 -16 12 -31 0 -19 3 -23 11 -15 13 13 -5 53 -24
52 -9 0 -9 -2 1 -6z"/>
<path d="M1765 2820 c-3 -5 -1 -10 4 -10 6 0 11 5 11 10 0 6 -2 10 -4 10 -3 0
-8 -4 -11 -10z"/>
<path d="M1513 2789 c-2 -17 1 -18 13 -9 17 15 18 30 1 30 -7 0 -13 -9 -14
-21z"/>
<path d="M1466 2785 c-3 -9 0 -15 9 -15 8 0 15 7 15 15 0 8 -4 15 -9 15 -5 0
-11 -7 -15 -15z"/>
<path d="M1773 2789 c14 -8 22 -8 30 0 8 8 3 11 -18 11 -26 -1 -28 -2 -12 -11z"/>
<path d="M1570 2769 c0 -5 5 -7 10 -4 6 3 10 8 10 11 0 2 -4 4 -10 4 -5 0 -10
-5 -10 -11z"/>
<path d="M2580 2770 c0 -5 5 -10 10 -10 6 0 10 5 10 10 0 6 -4 10 -10 10 -5 0
-10 -4 -10 -10z"/>
<path d="M1753 2758 c-9 -12 -9 -60 -1 -140 2 -17 7 -23 13 -17 5 5 19 9 32 9
38 0 75 23 88 55 12 26 11 33 -6 57 -16 22 -27 27 -57 26 -20 0 -43 -6 -51
-12 -12 -9 -13 -7 -9 12 7 25 5 27 -9 10z"/>
<path d="M2470 2740 c0 -5 -7 -10 -15 -10 -8 0 -15 -4 -15 -10 0 -5 7 -10 15
-10 8 0 15 5 15 11 0 5 4 7 10 4 6 -3 7 1 4 9 -7 18 -14 21 -14 6z"/>
<path d="M2673 2724 c-12 -27 -10 -44 7 -44 4 0 11 11 14 25 4 14 12 25 19 25
8 0 7 4 -3 10 -21 14 -24 13 -37 -16z"/>
<path d="M2550 2729 c0 -6 -10 -9 -23 -7 -31 6 -43 -10 -41 -55 3 -56 19 -70
75 -65 40 4 48 2 52 -14 3 -10 10 -18 16 -18 14 0 14 27 1 35 -6 4 -7 13 -1
24 14 26 9 111 -7 111 -7 0 -11 -4 -7 -9 3 -6 -7 -6 -27 0 -40 11 -38 11 -38
-2z"/>
<path d="M2792 2728 c-7 -7 -12 -23 -12 -36 0 -32 34 -26 38 7 5 29 -10 45
-26 29z"/>
<path d="M1712 2700 c-6 -16 -7 -32 -3 -34 4 -3 13 10 19 29 12 43 -2 47 -16
5z"/>
<path d="M2240 2690 c0 -29 4 -40 15 -40 11 0 15 11 15 40 0 29 -4 40 -15 40
-11 0 -15 -11 -15 -40z"/>
<path d="M2300 2694 c0 -21 4 -45 9 -53 5 -8 7 5 4 35 -7 61 -13 70 -13 18z"/>
<path d="M1552 2693 c-15 -19 -25 -24 -28 -15 -3 6 -23 12 -45 12 l-39 0 0
-45 0 -45 40 0 c35 0 40 3 41 23 0 19 2 18 16 -10 9 -18 20 -33 23 -33 4 0 15
18 25 40 16 36 21 40 56 40 29 0 39 5 44 20 3 11 3 24 0 30 -9 15 -41 12 -59
-5 -8 -8 -17 -15 -20 -15 -3 0 -6 7 -6 15 0 24 -24 18 -48 -12z"/>
<path d="M1387 2703 c-4 -3 -7 -21 -7 -39 0 -25 4 -32 14 -28 8 3 17 12 20 21
7 16 -17 57 -27 46z"/>
<path d="M2847 2703 c-11 -10 -8 -53 3 -53 6 0 10 14 10 30 0 31 -2 35 -13 23z"/>
<path d="M2370 2681 c0 -12 -1 -24 -2 -28 -1 -5 5 -9 14 -11 12 -2 14 3 11 23
-7 32 -23 43 -23 16z"/>
<path d="M2437 2670 c-3 -11 -1 -20 4 -20 5 0 9 9 9 20 0 11 -2 20 -4 20 -2 0
-6 -9 -9 -20z"/>
<path d="M1917 2623 c-5 -28 -5 -28 12 -7 9 11 23 23 31 27 9 3 4 6 -11 6 -21
1 -28 -5 -32 -26z"/>
<path d="M2152 2631 c13 -21 28 -19 28 5 0 8 -9 14 -20 14 -17 0 -19 -3 -8
-19z"/>
<path d="M2720 2636 c0 -7 7 -19 15 -26 18 -15 15 -42 -8 -64 -22 -23 -21 -32
3 -39 15 -4 18 -10 13 -24 -3 -10 -3 -15 2 -11 4 4 9 46 12 93 3 80 2 85 -17
85 -11 0 -20 -6 -20 -14z"/>
<path d="M2803 2595 c0 -33 2 -45 4 -27 2 18 2 45 0 60 -2 15 -4 0 -4 -33z"/>
<path d="M1710 2626 c0 -9 5 -16 10 -16 6 0 10 4 10 9 0 6 -4 13 -10 16 -5 3
-10 -1 -10 -9z"/>
<path d="M1875 2620 c-3 -5 -2 -10 4 -10 5 0 13 5 16 10 3 6 2 10 -4 10 -5 0
-13 -4 -16 -10z"/>
<path d="M2235 2620 c-3 -5 -1 -10 4 -10 6 0 11 5 11 10 0 6 -2 10 -4 10 -3 0
-8 -4 -11 -10z"/>
<path d="M2290 2613 c1 -12 29 -47 34 -42 7 7 -13 49 -24 49 -5 0 -10 -3 -10
-7z"/>
<path d="M1416 2594 c-9 -22 -8 -24 9 -24 8 0 15 6 15 14 0 22 -17 28 -24 10z"/>
<path d="M2391 2593 c-10 -11 -10 -18 -2 -26 14 -14 23 -4 19 21 -3 18 -5 18
-17 5z"/>
<path d="M1850 2590 c-12 -8 -11 -10 8 -10 12 0 22 5 22 10 0 13 -11 13 -30 0z"/>
<path d="M2498 2556 c15 -34 32 -40 32 -10 0 9 10 14 29 14 17 0 32 3 35 8 2
4 -14 8 -37 8 -23 0 -49 3 -59 8 -15 7 -15 5 0 -28z"/>
<path d="M1340 2560 c0 -19 3 -21 12 -12 9 9 9 15 0 24 -9 9 -12 7 -12 -12z"/>
<path d="M2064 2558 c3 -13 6 -27 6 -33 0 -5 6 1 14 15 15 28 12 40 -11 40
-11 0 -14 -6 -9 -22z"/>
<path d="M1450 2566 c0 -2 6 -9 14 -15 10 -9 16 -8 26 4 11 13 8 15 -14 15
-14 0 -26 -2 -26 -4z"/>
<path d="M1566 2555 c4 -8 7 -15 9 -15 1 0 8 7 15 15 10 13 9 15 -8 15 -15 0
-20 -5 -16 -15z"/>
<path d="M1840 2561 c0 -5 11 -8 25 -7 33 1 33 16 0 16 -14 0 -25 -4 -25 -9z"/>
<path d="M2010 2555 c-10 -12 -10 -18 0 -30 7 -8 16 -15 21 -15 11 0 11 31 0
48 -6 10 -10 10 -21 -3z"/>
<path d="M2222 2550 c-17 -28 -15 -95 4 -111 8 -7 13 -21 10 -31 -2 -11 2 -22
10 -25 23 -9 16 -23 -11 -23 -27 0 -45 -30 -45 -72 0 -19 4 -20 47 -14 25 3
54 13 63 21 9 8 22 15 28 15 6 0 14 15 17 34 6 28 1 41 -29 81 -30 39 -36 55
-36 96 0 44 -2 49 -23 49 -12 0 -28 -9 -35 -20z"/>
<path d="M2355 2561 c-3 -5 -1 -12 5 -16 5 -3 10 1 10 9 0 18 -6 21 -15 7z"/>
<path d="M2840 2491 c0 -107 14 -111 18 -5 1 52 -2 84 -8 84 -6 0 -10 -33 -10
-79z"/>
<path d="M1380 2531 c0 -18 -5 -31 -12 -31 -7 0 -5 -5 5 -11 9 -5 17 -19 17
-29 0 -30 36 -26 44 5 9 37 23 30 30 -16 8 -47 14 -46 26 5 9 42 -6 71 -33 60
-9 -3 -17 -10 -17 -15 0 -5 -14 -9 -32 -9 -25 0 -29 3 -20 12 15 15 16 45 2
53 -6 4 -10 -7 -10 -24z"/>
<path d="M1703 2533 l-22 -23 23 0 c13 0 27 8 30 17 11 27 -7 31 -31 6z"/>
<path d="M2631 2544 c0 -11 3 -14 6 -6 3 7 2 16 -1 19 -3 4 -6 -2 -5 -13z"/>
<path d="M1920 2535 c0 -8 5 -15 10 -15 6 0 10 7 10 15 0 8 -4 15 -10 15 -5 0
-10 -7 -10 -15z"/>
<path d="M2319 2535 c-6 -36 -5 -55 5 -55 7 0 6 -3 -2 -8 -9 -7 -2 -20 27 -52
22 -24 43 -41 47 -37 4 4 -1 16 -10 26 -11 12 -15 27 -11 40 4 13 -1 27 -12
39 -10 10 -23 27 -30 38 -6 10 -13 15 -14 9z"/>
<path d="M1556 2506 c-9 -14 -16 -41 -16 -61 0 -32 2 -35 29 -35 16 0 36 7 45
15 18 19 26 19 26 1 0 -8 -8 -17 -17 -19 -10 -3 0 -5 22 -5 22 0 34 2 28 5
-20 8 -15 21 10 25 12 2 22 10 22 18 0 8 -10 16 -22 18 -13 2 -23 8 -23 13 0
5 -4 9 -10 9 -5 0 -10 -7 -10 -15 0 -8 -3 -15 -6 -15 -9 0 -34 28 -34 38 0 5
-6 15 -14 21 -10 9 -17 6 -30 -13z"/>
<path d="M2557 2523 c-4 -3 -6 -20 -6 -37 1 -21 3 -25 6 -11 3 11 11 24 19 28
8 4 14 12 14 17 0 11 -23 13 -33 3z"/>
<path d="M2801 2504 c0 -11 3 -14 6 -6 3 7 2 16 -1 19 -3 4 -6 -2 -5 -13z"/>
<path d="M1930 2490 c-12 -8 -11 -10 7 -10 12 0 25 5 28 10 8 13 -15 13 -35 0z"/>
<path d="M1960 2425 c0 -8 5 -15 10 -15 6 0 10 7 10 15 0 8 -4 15 -10 15 -5 0
-10 -7 -10 -15z"/>
<path d="M1355 2420 c-3 -5 1 -10 9 -10 9 0 16 5 16 10 0 6 -4 10 -9 10 -6 0
-13 -4 -16 -10z"/>
<path d="M2450 2421 c0 -5 -8 -11 -17 -13 -15 -3 -14 -5 5 -10 17 -5 22 -2 22
13 0 10 -2 19 -5 19 -3 0 -5 -4 -5 -9z"/>
<path d="M1280 2410 c0 -5 5 -10 10 -10 6 0 10 5 10 10 0 6 -4 10 -10 10 -5 0
-10 -4 -10 -10z"/>
<path d="M2510 2395 c0 -12 -2 -38 -5 -56 -3 -19 -3 -28 1 -21 3 6 12 12 20
12 8 0 14 10 14 24 0 14 5 28 10 31 17 11 11 22 -15 27 -21 4 -25 1 -25 -17z"/>
<path d="M2798 2370 c-3 -16 -1 -30 4 -30 4 0 8 14 8 30 0 17 -2 30 -4 30 -2
0 -6 -13 -8 -30z"/>
<path d="M1366 2377 c-17 -12 -17 -15 -3 -29 9 -9 14 -18 11 -20 -2 -3 0 -18
6 -33 7 -17 15 -25 25 -21 8 3 21 -2 30 -10 13 -14 15 -13 15 5 0 12 5 21 10
21 6 0 10 9 10 20 0 11 -6 20 -14 20 -8 0 -17 14 -21 30 -7 33 -37 41 -69 17z
m60 -45 c-8 -7 -25 8 -37 31 -11 21 -10 21 15 -2 14 -14 24 -26 22 -29z"/>
<path d="M2128 2376 c-21 -15 -24 -36 -5 -36 6 0 17 11 24 25 12 28 7 31 -19
11z"/>
<path d="M2684 2376 c-15 -12 -17 -17 -6 -27 6 -7 12 -23 12 -35 0 -31 18 -40
24 -12 11 49 10 88 -2 88 -5 0 -17 -6 -28 -14z"/>
<path d="M1760 2369 c0 -5 5 -7 10 -4 6 3 10 8 10 11 0 2 -4 4 -10 4 -5 0 -10
-5 -10 -11z"/>
<path d="M2740 2356 c0 -8 5 -18 10 -21 6 -3 10 3 10 14 0 12 -4 21 -10 21 -5
0 -10 -6 -10 -14z"/>
<path d="M1820 2345 c0 -8 5 -15 10 -15 6 0 10 7 10 15 0 8 -4 15 -10 15 -5 0
-10 -7 -10 -15z"/>
<path d="M1905 2341 c-6 -11 9 -23 19 -14 9 9 7 23 -3 23 -6 0 -12 -4 -16 -9z"/>
<path d="M2160 2341 c0 -6 5 -13 10 -16 6 -3 10 1 10 9 0 9 -4 16 -10 16 -5 0
-10 -4 -10 -9z"/>
<path d="M2073 2333 c-15 -5 -18 -33 -4 -33 5 0 11 9 14 20 3 11 4 20 4 19 -1
0 -8 -3 -14 -6z"/>
<path d="M1340 2315 c0 -8 4 -15 10 -15 5 0 7 7 4 15 -4 8 -8 15 -10 15 -2 0
-4 -7 -4 -15z"/>
<path d="M1790 2320 c0 -9 31 -30 44 -30 13 0 5 28 -10 34 -23 9 -34 7 -34 -4z"/>
<path d="M2110 2294 c0 -31 2 -35 15 -24 8 7 15 23 15 36 0 15 -6 24 -15 24
-11 0 -15 -11 -15 -36z"/>
<path d="M2590 2295 c0 -19 5 -35 10 -35 6 0 10 16 10 35 0 19 -4 35 -10 35
-5 0 -10 -16 -10 -35z"/>
<path d="M1666 2311 c-3 -5 -15 -7 -26 -4 -11 3 -20 1 -20 -3 0 -5 -3 -19 -6
-31 -5 -17 -2 -23 10 -23 9 0 16 7 16 15 0 10 10 15 30 15 17 0 30 3 30 6 0
12 -29 34 -34 25z"/>
<path d="M1560 2300 c0 -5 5 -10 11 -10 5 0 7 5 4 10 -3 6 -8 10 -11 10 -2 0
-4 -4 -4 -10z"/>
<path d="M2495 2290 c-4 -6 -3 -16 3 -22 6 -6 12 -6 17 2 4 6 3 16 -3 22 -6 6
-12 6 -17 -2z"/>
<path d="M2631 2284 c0 -11 3 -14 6 -6 3 7 2 16 -1 19 -3 4 -6 -2 -5 -13z"/>
<path d="M2306 2275 c-3 -9 0 -15 8 -15 8 0 16 7 20 15 3 9 0 15 -8 15 -8 0
-16 -7 -20 -15z"/>
<path d="M2420 2280 c0 -5 5 -10 11 -10 5 0 7 5 4 10 -3 6 -8 10 -11 10 -2 0
-4 -4 -4 -10z"/>
<path d="M1560 2269 c0 -7 -9 -20 -20 -29 -27 -23 -25 -79 2 -72 13 3 18 14
18 43 0 22 5 39 10 39 6 0 10 7 10 15 0 8 -4 15 -10 15 -5 0 -10 -5 -10 -11z"/>
<path d="M1825 2260 c-3 -5 -1 -10 4 -10 6 0 11 5 11 10 0 6 -2 10 -4 10 -3 0
-8 -4 -11 -10z"/>
<path d="M2060 2257 c-9 -7 -14 -20 -12 -30 3 -14 -1 -18 -15 -15 -10 2 -17
11 -17 20 1 10 -7 16 -22 16 -22 0 -22 -1 -7 -25 14 -21 14 -26 2 -33 -16 -11
-6 -23 23 -27 12 -2 19 -1 15 3 -13 13 17 32 34 21 22 -13 50 -2 56 23 3 11
10 20 15 20 5 0 8 -6 5 -12 -6 -19 11 -48 28 -48 11 0 15 13 15 50 0 28 -4 50
-10 50 -5 0 -10 -4 -10 -10 0 -13 -63 -13 -75 -1 -6 6 -16 5 -25 -2z"/>
<path d="M2450 2251 c0 -5 -10 -7 -22 -3 -17 4 -20 2 -15 -12 4 -10 7 -20 7
-22 0 -2 9 -4 20 -4 15 0 20 7 20 25 0 14 -2 25 -5 25 -3 0 -5 -4 -5 -9z"/>
<path d="M1714 2200 c0 -27 4 -50 8 -50 5 0 8 23 8 50 0 28 -4 50 -8 50 -5 0
-9 -22 -8 -50z"/>
<path d="M2240 2242 c0 -11 48 -13 55 -2 4 6 -7 10 -24 10 -17 0 -31 -4 -31
-8z"/>
<path d="M2356 2234 c-3 -8 -12 -14 -21 -14 -8 0 -15 -5 -15 -11 0 -8 11 -9
31 -5 17 3 35 6 40 6 5 0 9 6 9 14 0 19 -37 27 -44 10z"/>
<path d="M2802 2230 c0 -14 2 -19 5 -12 2 6 2 18 0 25 -3 6 -5 1 -5 -13z"/>
<path d="M1906 2204 c-8 -20 -6 -84 2 -106 4 -9 30 -34 58 -57 40 -31 66 -43
125 -56 41 -8 86 -15 101 -15 20 0 28 -6 31 -22 4 -21 4 -20 6 3 1 29 17 39
60 39 30 0 104 44 137 81 12 13 24 41 27 62 6 36 5 37 -24 37 -16 0 -29 -4
-29 -10 0 -15 -68 -73 -103 -88 -23 -10 -59 -13 -129 -9 -84 4 -104 9 -141 32
-25 16 -50 43 -62 67 -22 46 -50 66 -59 42z"/>
<path d="M2480 2202 c0 -5 7 -13 16 -16 10 -4 14 -1 12 6 -5 15 -28 23 -28 10z"/>
<path d="M2597 2203 c-3 -2 -3 -12 0 -23 5 -18 53 -35 53 -19 0 5 7 9 15 9 18
0 20 16 3 27 -14 8 -65 13 -71 6z"/>
<path d="M2720 2189 c0 -5 5 -7 10 -4 6 3 10 8 10 11 0 2 -4 4 -10 4 -5 0 -10
-5 -10 -11z"/>
<path d="M1616 2156 c3 -8 12 -12 20 -9 17 6 9 23 -11 23 -8 0 -12 -6 -9 -14z"/>
<path d="M2054 2159 c-3 -6 -2 -14 3 -18 6 -3 13 -13 16 -21 3 -8 4 0 4 17 -2
34 -10 42 -23 22z"/>
<path d="M1656 2143 c-4 -10 1 -25 14 -37 21 -22 26 -13 14 32 -7 26 -19 29
-28 5z"/>
<path d="M2730 2145 c0 -8 5 -15 10 -15 6 0 10 7 10 15 0 8 -4 15 -10 15 -5 0
-10 -7 -10 -15z"/>
<path d="M2479 2113 c-1 -10 -1 -21 0 -25 0 -5 -3 -8 -8 -8 -6 0 -9 -9 -8 -19
1 -15 6 -17 22 -11 21 8 34 40 16 40 -6 0 -8 6 -5 14 3 8 1 17 -5 21 -6 3 -12
-2 -12 -12z"/>
<path d="M1760 2105 c0 -9 5 -15 11 -13 6 2 11 8 11 13 0 5 -5 11 -11 13 -6 2
-11 -4 -11 -13z"/>
<path d="M1573 2093 c1 -15 7 -21 19 -20 26 4 34 17 11 17 -12 0 -23 6 -26 13
-3 6 -4 2 -4 -10z"/>
<path d="M1664 2059 c-9 -15 5 -27 26 -22 11 3 20 9 20 13 0 12 -39 19 -46 9z"/>
<path d="M2545 2041 c-3 -5 -1 -12 5 -16 5 -3 10 1 10 9 0 18 -6 21 -15 7z"/>
<path d="M2445 2020 c-3 -5 1 -10 10 -10 9 0 13 5 10 10 -3 6 -8 10 -10 10 -2
0 -7 -4 -10 -10z"/>
<path d="M2580 2016 c0 -2 9 -6 20 -9 11 -3 18 -1 14 4 -5 9 -34 13 -34 5z"/>
<path d="M2370 2000 c0 -5 5 -10 11 -10 5 0 7 5 4 10 -3 6 -8 10 -11 10 -2 0
-4 -4 -4 -10z"/>
<path d="M1675 1990 c-3 -5 -1 -10 4 -10 6 0 11 5 11 10 0 6 -2 10 -4 10 -3 0
-8 -4 -11 -10z"/>
<path d="M2560 1990 c-8 -5 -11 -12 -7 -16 4 -4 15 0 24 9 18 18 8 23 -17 7z"/>
<path d="M2000 1979 c0 -5 5 -7 10 -4 6 3 10 8 10 11 0 2 -4 4 -10 4 -5 0 -10
-5 -10 -11z"/>
<path d="M2304 1972 c-6 -4 -14 -23 -18 -43 -5 -29 -3 -38 10 -43 25 -10 38 8
25 33 -9 17 -9 21 3 21 9 0 12 7 9 20 -6 21 -12 24 -29 12z"/>
<path d="M2105 1940 c-3 -5 3 -10 14 -10 11 0 23 5 26 10 3 6 -3 10 -14 10
-11 0 -23 -4 -26 -10z"/>
<path d="M2170 1940 c0 -5 5 -10 10 -10 6 0 10 5 10 10 0 6 -4 10 -10 10 -5 0
-10 -4 -10 -10z"/>
<path d="M2405 1930 c-3 -5 1 -10 9 -10 8 0 18 5 21 10 3 6 -1 10 -9 10 -8 0
-18 -4 -21 -10z"/>
<path d="M2007 1914 c-8 -8 1 -24 14 -24 5 0 9 7 9 15 0 15 -12 20 -23 9z"/>
<path d="M2100 1889 c0 -4 13 -12 29 -17 24 -8 31 -7 35 5 3 8 6 15 6 16 0 6
-70 2 -70 -4z"/>
<path d="M2350 1879 c0 -5 5 -7 10 -4 6 3 10 8 10 11 0 2 -4 4 -10 4 -5 0 -10
-5 -10 -11z"/>
<path d="M2063 1703 c18 -5 25 -53 7 -53 -5 0 -10 -11 -10 -24 0 -30 26 -42
33 -16 3 11 0 21 -7 23 -6 3 2 8 18 12 20 6 31 4 34 -3 6 -20 22 -13 24 11 0
12 4 0 8 -28 5 -39 7 -43 8 -17 1 18 7 42 12 53 8 14 8 24 0 37 -10 15 -11 15
-6 -3 6 -19 5 -19 -8 -2 -10 14 -15 15 -19 5 -4 -10 -6 -10 -6 0 -1 6 -6 12
-12 12 -5 0 -7 -4 -4 -10 3 -5 -1 -10 -9 -10 -9 0 -16 5 -16 10 0 6 -15 9 -32
9 -18 -1 -25 -3 -15 -6z"/>
<path d="M2020 1654 c0 -17 -5 -35 -11 -41 -8 -8 -7 -13 1 -18 17 -10 27 9 24
46 -3 40 -14 51 -14 13z"/>
<path d="M2130 1616 c0 -2 7 -9 15 -16 12 -10 15 -10 15 4 0 9 -7 16 -15 16
-8 0 -15 -2 -15 -4z"/>
<path d="M2100 1590 c0 -13 5 -20 13 -17 6 2 12 10 12 17 0 7 -6 15 -12 18 -8
2 -13 -5 -13 -18z"/>
<path d="M2185 1560 c-4 -6 -13 -9 -20 -6 -8 3 -22 -9 -34 -30 l-20 -34 25 0
c17 0 28 8 37 28 6 15 16 30 22 34 5 4 7 10 3 13 -3 4 -9 1 -13 -5z"/>
<path d="M2020 1520 c0 -5 5 -10 11 -10 5 0 7 5 4 10 -3 6 -8 10 -11 10 -2 0
-4 -4 -4 -10z"/>
</g>
</svg>
